HIERARCHY
ROOT Hips
{
	OFFSET 0.000000 103.266502 0.000000
	CHANNELS 6 Xposition Yposition Zposition Xrotation Yrotation Zrotation 
	JOINT Spine
	{
		OFFSET -0.002400 12.777504 0.315300
		CHANNELS 3 Xrotation Yrotation Zrotation
		JOINT Spine1
		{
			OFFSET -0.002067 5.816869 0.032633
			CHANNELS 3 Xrotation Yrotation Zrotation
			JOINT Spine1_split
			{
				OFFSET -0.002067 5.816869 0.032633
				CHANNELS 3 Xrotation Yrotation Zrotation
				JOINT Spine2
				{
					OFFSET -0.002067 5.816869 0.032633
					CHANNELS 3 Xrotation Yrotation Zrotation
					JOINT Neck
					{
						OFFSET -0.003700 21.199493 -0.826900
						CHANNELS 3 Xrotation Yrotation Zrotation
						JOINT Head
						{
							OFFSET 0.000000 20.442200 4.834800
							CHANNELS 3 Xrotation Yrotation Zrotation
							JOINT HeadTop_End
							{
								OFFSET 0.000000 34.668396 4.968400
								CHANNELS 3 Xrotation Yrotation Zrotation
								End Site
								{
									OFFSET 0.000000 0.000000 0.000000
								}
							}
						}
					}
					JOINT LeftShoulder
					{
						OFFSET 3.288150 8.794197 -1.372250
						CHANNELS 3 Xrotation Yrotation Zrotation
						JOINT LeftShoulder_split
						{
							OFFSET 3.288150 8.794197 -1.372250
							CHANNELS 3 Xrotation Yrotation Zrotation
							JOINT LeftArm
							{
								OFFSET 11.953299 -2.279007 -0.146200
								CHANNELS 3 Xrotation Yrotation Zrotation
								JOINT LeftForeArm
								{
									OFFSET 18.448900 0.000000 0.000000
									CHANNELS 3 Xrotation Yrotation Zrotation
									JOINT LeftHand
									{
										OFFSET 29.527798 0.000000 0.000000
										CHANNELS 3 Xrotation Yrotation Zrotation
										JOINT LeftHandThumb1
										{
											OFFSET 10.739754 -2.369614 9.225399
											CHANNELS 3 Xrotation Yrotation Zrotation
											JOINT LeftHandThumb2
											{
												OFFSET 4.926170 -2.844131 2.844125
												CHANNELS 3 Xrotation Yrotation Zrotation
												JOINT LeftHandThumb3
												{
													OFFSET 4.614891 -2.664413 2.664409
													CHANNELS 3 Xrotation Yrotation Zrotation
													JOINT LeftHandThumb4
													{
														OFFSET 4.432465 -2.559082 2.559083
														CHANNELS 3 Xrotation Yrotation Zrotation
														End Site
														{
															OFFSET 0.000000 0.000000 0.000000
														}
													}
												}
											}
										}
										JOINT LeftHandIndex1
										{
											OFFSET 26.467674 0.187653 6.405298
											CHANNELS 3 Xrotation Yrotation Zrotation
											JOINT LeftHandIndex2
											{
												OFFSET 8.792900 0.000000 0.000000
												CHANNELS 3 Xrotation Yrotation Zrotation
												JOINT LeftHandIndex3
												{
													OFFSET 10.075203 0.000000 0.000000
													CHANNELS 3 Xrotation Yrotation Zrotation
													End Site
													{
														OFFSET 0.000000 0.000000 0.000000
													}
												}
											}
										}
										JOINT LeftHandMiddle1
										{
											OFFSET 25.764404 0.000000 0.000000
											CHANNELS 3 Xrotation Yrotation Zrotation
											JOINT LeftHandMiddle2
											{
												OFFSET 9.393974 0.000000 0.000000
												CHANNELS 3 Xrotation Yrotation Zrotation
												JOINT LeftHandMiddle3
												{
													OFFSET 10.771950 0.000000 0.000000
													CHANNELS 3 Xrotation Yrotation Zrotation
													End Site
													{
														OFFSET 0.000000 0.000000 0.000000
													}
												}
											}
										}
										JOINT LeftHandRing1
										{
											OFFSET 24.660927 0.144547 -6.225808
											CHANNELS 3 Xrotation Yrotation Zrotation
											JOINT LeftHandRing2
											{
												OFFSET 9.393799 0.000000 0.000000
												CHANNELS 3 Xrotation Yrotation Zrotation
												JOINT LeftHandRing3
												{
													OFFSET 9.928497 0.000000 0.000000
													CHANNELS 3 Xrotation Yrotation Zrotation
													End Site
													{
														OFFSET 0.000000 0.000000 0.000000
													}
												}
											}
										}
										JOINT LeftHandPinky1
										{
											OFFSET 23.655350 0.125290 -12.815412
											CHANNELS 3 Xrotation Yrotation Zrotation
											JOINT LeftHandPinky2
											{
												OFFSET 8.425102 0.000000 0.000000
												CHANNELS 3 Xrotation Yrotation Zrotation
												JOINT LeftHandPinky3
												{
													OFFSET 8.147003 0.000000 0.000000
													CHANNELS 3 Xrotation Yrotation Zrotation
													End Site
													{
														OFFSET 0.000000 0.000000 0.000000
													}
												}
											}
										}
									}
								}
							}
						}
					}
					JOINT RightShoulder
					{
						OFFSET -3.249400 8.794197 -1.372250
						CHANNELS 3 Xrotation Yrotation Zrotation
						JOINT RightShoulder_split
						{
							OFFSET -3.249400 8.794197 -1.372250
							CHANNELS 3 Xrotation Yrotation Zrotation
							JOINT RightArm
							{
								OFFSET -11.953299 -2.279007 -0.146200
								CHANNELS 3 Xrotation Yrotation Zrotation
								JOINT RightForeArm
								{
									OFFSET -18.448900 0.000000 0.000000
									CHANNELS 3 Xrotation Yrotation Zrotation
									JOINT RightHand
									{
										OFFSET -29.527802 0.000000 0.000000
										CHANNELS 3 Xrotation Yrotation Zrotation
										JOINT RightHandThumb1
										{
											OFFSET -10.739754 -2.369614 9.225399
											CHANNELS 3 Xrotation Yrotation Zrotation
											JOINT RightHandThumb2
											{
												OFFSET -4.926170 -2.844131 2.844125
												CHANNELS 3 Xrotation Yrotation Zrotation
												JOINT RightHandThumb3
												{
													OFFSET -4.614891 -2.664413 2.664409
													CHANNELS 3 Xrotation Yrotation Zrotation
													JOINT RightHandThumb4
													{
														OFFSET -4.432465 -2.559082 2.559083
														CHANNELS 3 Xrotation Yrotation Zrotation
														End Site
														{
															OFFSET 0.000000 0.000000 0.000000
														}
													}
												}
											}
										}
										JOINT RightHandIndex1
										{
											OFFSET -26.467674 0.187653 6.405298
											CHANNELS 3 Xrotation Yrotation Zrotation
											JOINT RightHandIndex2
											{
												OFFSET -8.792900 0.000000 0.000000
												CHANNELS 3 Xrotation Yrotation Zrotation
												JOINT RightHandIndex3
												{
													OFFSET -10.075203 0.000000 0.000000
													CHANNELS 3 Xrotation Yrotation Zrotation
													End Site
													{
														OFFSET 0.000000 0.000000 0.000000
													}
												}
											}
										}
										JOINT RightHandMiddle1
										{
											OFFSET -25.764404 0.000000 0.000000
											CHANNELS 3 Xrotation Yrotation Zrotation
											JOINT RightHandMiddle2
											{
												OFFSET -9.393974 0.000000 0.000000
												CHANNELS 3 Xrotation Yrotation Zrotation
												JOINT RightHandMiddle3
												{
													OFFSET -10.771950 0.000000 0.000000
													CHANNELS 3 Xrotation Yrotation Zrotation
													End Site
													{
														OFFSET 0.000000 0.000000 0.000000
													}
												}
											}
										}
										JOINT RightHandRing1
										{
											OFFSET -24.660927 0.144547 -6.225808
											CHANNELS 3 Xrotation Yrotation Zrotation
											JOINT RightHandRing2
											{
												OFFSET -9.393799 0.000000 0.000000
												CHANNELS 3 Xrotation Yrotation Zrotation
												JOINT RightHandRing3
												{
													OFFSET -9.928497 0.000000 0.000000
													CHANNELS 3 Xrotation Yrotation Zrotation
													End Site
													{
														OFFSET 0.000000 0.000000 0.000000
													}
												}
											}
										}
										JOINT RightHandPinky1
										{
											OFFSET -23.655350 0.125290 -12.815412
											CHANNELS 3 Xrotation Yrotation Zrotation
											JOINT RightHandPinky2
											{
												OFFSET -8.425102 0.000000 0.000000
												CHANNELS 3 Xrotation Yrotation Zrotation
												JOINT RightHandPinky3
												{
													OFFSET -8.147003 0.000000 0.000000
													CHANNELS 3 Xrotation Yrotation Zrotation
													End Site
													{
														OFFSET 0.000000 0.000000 0.000000
													}
												}
											}
										}
									}
								}
							}
						}
					}
				}
			}
		}
	}
	JOINT LeftUpLeg
	{
		OFFSET 11.394100 -6.187798 -0.413800
		CHANNELS 3 Xrotation Yrotation Zrotation
		JOINT LeftLeg
		{
			OFFSET 0.430247 -32.302673 3.732800
			CHANNELS 3 Xrotation Yrotation Zrotation
			JOINT LeftFoot
			{
				OFFSET -0.430247 -48.264931 -6.423300
				CHANNELS 3 Xrotation Yrotation Zrotation
				JOINT LeftToeBase
				{
					OFFSET 4.230900 -16.068199 23.438400
					CHANNELS 3 Xrotation Yrotation Zrotation
					JOINT LeftToe_End
					{
						OFFSET 4.510700 0.695400 19.974600
						CHANNELS 3 Xrotation Yrotation Zrotation
						End Site
						{
							OFFSET 0.000000 0.000000 0.000000
						}
					}
				}
			}
		}
	}
	JOINT RightUpLeg
	{
		OFFSET -11.333700 -6.187798 -0.413800
		CHANNELS 3 Xrotation Yrotation Zrotation
		JOINT RightLeg
		{
			OFFSET -0.430392 -32.302628 3.733000
			CHANNELS 3 Xrotation Yrotation Zrotation
			JOINT RightFoot
			{
				OFFSET 0.430392 -48.264973 -6.423500
				CHANNELS 3 Xrotation Yrotation Zrotation
				JOINT RightToeBase
				{
					OFFSET -4.230900 -16.068199 23.438400
					CHANNELS 3 Xrotation Yrotation Zrotation
					JOINT RightToe_End
					{
						OFFSET -4.510700 0.695400 19.974600
						CHANNELS 3 Xrotation Yrotation Zrotation
						End Site
						{
							OFFSET 0.000000 0.000000 0.000000
						}
					}
				}
			}
		}
	}
}
MOTION
Frames: 4
Frame Time: 0.016667
3.504485 83.590462 15.816694 0.262984 -30.247336 -2.614252 11.972326 9.389213 -5.390610 2.723683 1.552884 -1.611382 0.000000 0.000000 0.000000 2.746777 1.530466 -1.591251 -10.034648 9.444449 7.085845 -0.518327 7.859692 -1.080338 0.000000 -0.000000 -0.000000 0.920477 1.300390 -6.093182 0.000000 0.000000 0.000000 -59.606398 1.454201 -47.058812 0.000073 -109.149790 0.000054 1.999407 -7.850082 -14.416098 -6.141207 -11.690801 -6.761678 9.914126 42.595508 3.409837 -0.422789 8.108082 27.509106 -0.000000 0.000004 -0.000000 0.255320 3.378219 -45.814327 5.654090 5.847755 -88.067469 0.000002 -0.000000 -0.000001 -0.461472 3.841599 -39.722679 6.450750 5.820358 -95.892857 -0.000001 -0.000001 -0.000001 0.469726 4.966829 -39.799454 8.181033 5.368615 -113.503011 0.000003 0.000000 -0.000000 -3.762426 9.063702 -45.253825 5.342529 5.829005 -85.005317 -0.000002 -0.000002 0.000003 2.590439 21.406219 -4.318639 0.000000 0.000000 0.000000 -39.313476 17.241004 46.560409 0.000026 113.312476 -0.000039 -14.981738 10.510287 -8.958505 -7.341098 13.749673 7.412335 9.855767 -44.489113 -3.903264 -0.115771 -14.513075 -28.973878 0.000001 -0.000001 0.000001 -0.124378 -2.384784 45.108874 4.500589 -4.654552 88.071150 0.000002 -0.000000 0.000001 -0.761622 -2.932899 39.031068 5.133893 -4.632761 95.881676 0.000002 0.000002 -0.000000 0.154758 -4.068805 39.122661 6.509727 -4.273597 113.462850 -0.000000 -0.000002 -0.000000 -4.198881 -8.025511 44.637776 4.252913 -4.639633 85.014818 0.000000 -0.000000 -0.000001 -53.141071 -2.156200 20.852212 66.790098 1.715346 0.455942 -13.835350 -8.571859 -11.893111 0.033711 -0.000001 -0.042327 -0.000000 0.000000 -0.000000 -20.044613 -11.725708 -30.092762 53.822181 -9.504145 -8.145807 -12.553093 -8.907933 22.762913 -9.304657 -0.000010 0.000002 0.000000 0.000000 -0.000001 
3.470319 83.368706 14.826839 -0.359950 -32.009289 -2.523868 12.015414 9.164006 -5.189616 2.734888 1.491813 -1.567835 0.000000 0.000000 0.000000 2.758106 1.469816 -1.547381 -9.735260 9.809004 6.855222 -0.083817 9.175665 -1.658000 0.000001 0.000000 -0.000000 0.919440 1.163407 -5.967905 0.000000 0.000000 0.000000 -60.124448 1.960616 -46.784166 0.000108 -108.853182 0.000110 2.167984 -7.474109 -14.181552 -6.141205 -11.690803 -6.761675 9.914123 42.595505 3.409842 -0.422789 8.108084 27.509106 -0.000002 0.000005 -0.000004 0.255321 3.378219 -45.814327 5.654090 5.847754 -88.067469 0.000000 -0.000001 0.000002 -0.461470 3.841600 -39.722679 6.450748 5.820358 -95.892857 -0.000001 0.000000 0.000001 0.469729 4.966827 -39.799447 8.181034 5.368616 -113.503011 0.000000 0.000000 0.000000 -3.762422 9.063704 -45.253821 5.342533 5.829005 -85.005317 0.000001 -0.000001 0.000001 2.580093 21.227866 -4.233256 0.000000 0.000000 0.000000 -40.248870 17.716343 48.393915 0.000029 112.648206 -0.000035 -15.571928 11.037968 -9.454334 -7.341097 13.749667 7.412332 9.855756 -44.489113 -3.903259 -0.115767 -14.513073 -28.973874 -0.000002 -0.000001 -0.000002 -0.124375 -2.384790 45.108878 4.500592 -4.654552 88.071150 0.000001 -0.000002 0.000002 -0.761623 -2.932908 39.031072 5.133889 -4.632761 95.881676 -0.000000 -0.000000 -0.000002 0.154758 -4.068812 39.122661 6.509731 -4.273596 113.462850 0.000002 -0.000002 -0.000000 -4.198881 -8.025514 44.637779 4.252915 -4.639633 85.014818 0.000001 -0.000001 0.000000 -52.641934 -2.131590 21.821708 66.797870 2.241296 -0.010596 -13.416669 -8.393186 -12.311179 0.035130 0.000007 -0.044096 0.000000 -0.000000 -0.000000 -20.729096 -11.146753 -30.506186 54.567952 -9.337355 -7.415629 -12.841232 -10.684240 23.386499 -8.860304 0.000031 0.000011 0.000000 0.000001 -0.000002 
3.394498 83.171936 13.792008 -0.900127 -33.569270 -2.384917 12.015044 8.920028 -4.996170 2.734734 1.427245 -1.530579 0.000000 0.000000 0.000000 2.757624 1.406158 -1.509498 -9.369963 10.141573 6.579430 0.350805 10.288568 -2.099688 0.000001 -0.000000 0.000000 0.848222 1.234095 -5.801387 0.000000 0.000000 0.000000 -60.427387 2.491310 -46.713067 -0.000035 -108.401010 -0.000027 2.365839 -7.630681 -14.447771 -6.141206 -11.690805 -6.761682 9.914124 42.595505 3.409843 -0.422793 8.108087 27.509106 0.000002 -0.000003 -0.000003 0.255320 3.378219 -45.814327 5.654091 5.847759 -88.067469 -0.000002 0.000002 -0.000000 -0.461471 3.841596 -39.722679 6.450748 5.820355 -95.892864 0.000002 0.000003 -0.000000 0.469727 4.966829 -39.799447 8.181036 5.368614 -113.503011 -0.000000 0.000001 0.000002 -3.762424 9.063701 -45.253821 5.342529 5.829002 -85.005317 0.000004 -0.000001 0.000001 2.551271 20.915491 -4.132407 0.000000 0.000000 0.000000 -41.238336 18.236704 50.341418 0.000066 112.007739 -0.000068 -15.687964 11.432313 -9.498025 -7.341099 13.749669 7.412334 9.855758 -44.489113 -3.903260 -0.115770 -14.513071 -28.973878 -0.000001 -0.000002 -0.000000 -0.124376 -2.384785 45.108878 4.500591 -4.654552 88.071157 -0.000000 -0.000003 0.000000 -0.761620 -2.932905 39.031068 5.133895 -4.632761 95.881676 0.000000 0.000000 0.000002 0.154758 -4.068807 39.122664 6.509731 -4.273599 113.462850 0.000001 -0.000001 -0.000001 -4.198881 -8.025512 44.637779 4.252918 -4.639632 85.014825 0.000000 -0.000002 0.000000 -52.221441 -2.074045 22.728073 66.692535 2.679899 -0.444577 -12.889649 -8.252357 -12.660170 0.028662 0.000013 -0.035916 -0.000000 0.000002 -0.000000 -21.192914 -10.690479 -30.269110 54.859646 -9.204558 -7.332090 -13.257012 -12.778689 24.180772 -8.321474 0.000029 0.000003 -0.000000 0.000000 0.000001 
3.283439 82.993858 12.700042 -1.380133 -34.937094 -2.192463 12.001509 8.668705 -4.809768 2.730772 1.361152 -1.496504 0.000000 0.000000 0.000000 2.753140 1.341177 -1.474810 -8.933129 10.442603 6.282899 0.750987 11.295833 -2.539361 0.000000 0.000000 0.000000 0.768329 1.378888 -5.675013 0.000000 0.000000 0.000000 -60.613913 2.997515 -46.737994 0.000238 -107.926578 0.000259 2.461858 -7.936545 -14.879195 -6.141207 -11.690802 -6.761677 9.914124 42.595505 3.409842 -0.422789 8.108086 27.509106 0.000001 -0.000001 -0.000002 0.255317 3.378216 -45.814327 5.654094 5.847757 -88.067469 0.000001 0.000002 -0.000000 -0.461474 3.841597 -39.722676 6.450745 5.820352 -95.892857 -0.000003 0.000000 0.000000 0.469724 4.966826 -39.799444 8.181034 5.368613 -113.503018 -0.000000 0.000001 0.000001 -3.762425 9.063699 -45.253818 5.342529 5.829002 -85.005311 0.000000 -0.000001 0.000001 2.521656 20.583212 -4.040483 0.000000 0.000000 0.000000 -42.285397 18.731714 52.282144 -0.000007 111.411300 0.000023 -15.585592 11.755241 -9.399768 -7.341098 13.749666 7.412329 9.855757 -44.489110 -3.903256 -0.115767 -14.513073 -28.973874 0.000001 0.000001 -0.000000 -0.124376 -2.384784 45.108874 4.500596 -4.654549 88.071157 -0.000001 -0.000000 -0.000001 -0.761622 -2.932905 39.031075 5.133891 -4.632762 95.881683 0.000001 -0.000002 -0.000001 0.154756 -4.068813 39.122658 6.509731 -4.273597 113.462850 0.000000 -0.000001 -0.000001 -4.198879 -8.025510 44.637776 4.252914 -4.639632 85.014825 -0.000000 -0.000002 0.000002 -51.865069 -1.997114 23.542023 66.464366 3.050584 -0.834778 -12.242429 -8.151148 -12.960284 0.020452 0.000001 -0.025748 -0.000000 -0.000000 -0.000000 -21.630272 -10.302465 -29.956936 55.008817 -9.170841 -7.383477 -13.999778 -14.362421 24.800320 -7.072350 0.000002 0.000003 0.000000 0.000000 -0.000000 
